<svg width="6088" height="7088" viewBox="0 0 6088 7088" fill="none" xmlns="http://www.w3.org/2000/svg">
<path d="M5979.18 44H108.82C73.021 44 44 69.3598 44 100.643V6987.36C44 7018.64 73.021 7044 108.82 7044H5979.18C6014.98 7044 6044 7018.64 6044 6987.36V100.643C6044 69.3598 6014.98 44 5979.18 44Z" fill="#F4F5F6" stroke="#E5E6EE" stroke-width="87.3282"/>
<path d="M5094.56 3834.05L5104.71 3784.45C5109.22 3761.9 5134.02 3747.25 5161.07 3752.88C5185.87 3758.52 5203.91 3779.94 5200.53 3801.36L5189.26 3853.21C5205.04 3855.47 5219.69 3846.45 5223.08 3830.67C5226.46 3813.76 5218.57 3750.63 5163.33 3739.36C5105.84 3728.08 5076.53 3782.19 5073.14 3801.36C5069.76 3816.01 5079.91 3830.67 5094.56 3834.05ZM5117.11 3774.3L5102.45 3844.2C5111.47 3854.34 5123.87 3863.36 5137.4 3865.61C5152.06 3869 5166.71 3865.61 5179.11 3859.98L5192.64 3790.08C5183.62 3778.81 5172.35 3770.92 5157.69 3767.54C5143.04 3765.28 5128.38 3767.54 5117.11 3774.3ZM5012.27 3872.38C5015.65 3882.52 5017.91 3893.8 5031.43 3896.05C5042.71 3898.31 5042.71 3898.31 5053.98 3900.56C5056.23 3900.56 5058.49 3900.56 5061.87 3901.69V3996.38H5199.4V3927.62C5203.91 3927.62 5207.29 3928.74 5210.68 3928.74C5211.8 3928.74 5214.06 3929.87 5215.18 3931C5216.31 3941.14 5217.44 3951.29 5219.69 3961.44C5220.82 3971.58 5221.95 3986.24 5224.2 3996.38H5261.4C5261.4 3995.26 5261.4 3989.62 5261.4 3989.62C5259.15 3980.6 5258.02 3971.58 5256.9 3961.44C5254.64 3945.65 5252.39 3928.74 5249 3911.83C5246.75 3897.18 5232.09 3896.05 5220.82 3893.8C5207.29 3891.54 5201.66 3890.42 5188.13 3887.03C5168.97 3883.65 5147.55 3879.14 5127.25 3875.76C5109.22 3872.38 5091.18 3869 5072.02 3865.61C5060.74 3864.49 5061.87 3863.36 5049.47 3861.11C5047.22 3861.11 5048.34 3861.11 5047.22 3858.85C5044.96 3854.34 5043.83 3849.83 5042.71 3844.2C5037.07 3828.41 5023.54 3785.58 5023.54 3785.58L4987.47 3795.72C4987.47 3795.72 5005.5 3850.96 5012.27 3872.38ZM5135.15 4050.49H5289.59V4016.67H5135.15V4050.49ZM4959.29 4050.49H5113.73V4016.67H4959.29V4050.49Z" fill="#B1B5C4"/>
<path d="M5315.62 1201.58L5440.35 1149.16C5481.79 1131.75 5527.6 1162.18 5527.6 1207.13V3226.91C5527.6 3261.64 5499.44 3289.79 5464.71 3289.79H4712.75C4678.02 3289.79 4649.87 3317.94 4649.87 3352.67V4078.44V4233.02V4387.61C4649.87 4422.34 4621.71 4450.49 4586.98 4450.49H4248.99C4214.26 4450.49 4186.11 4422.34 4186.11 4387.61V2911.19C4186.11 2876.46 4214.26 2848.31 4248.99 2848.31H5088.73C5123.46 2848.31 5151.61 2820.15 5151.61 2785.42V1315.7C5151.61 1290.91 5166.18 1268.43 5188.82 1258.3L5315.62 1201.58Z" fill="white"/>
<path d="M4419.55 4304.82C4483.22 4304.82 4534.83 4253.2 4534.83 4189.53C4534.83 4125.86 4483.22 4074.25 4419.55 4074.25C4355.88 4074.25 4304.26 4125.86 4304.26 4189.53C4304.26 4253.2 4355.88 4304.82 4419.55 4304.82Z" fill="#E6E8EC"/>
<path d="M4419.55 3932.77C4483.22 3932.77 4534.83 3881.15 4534.83 3817.48C4534.83 3753.81 4483.22 3702.2 4419.55 3702.2C4355.88 3702.2 4304.26 3753.81 4304.26 3817.48C4304.26 3881.15 4355.88 3932.77 4419.55 3932.77Z" fill="#E6E8EC"/>
<path d="M4419.55 3560.71C4483.22 3560.71 4534.83 3509.1 4534.83 3445.43C4534.83 3381.76 4483.22 3330.15 4419.55 3330.15C4355.88 3330.15 4304.26 3381.76 4304.26 3445.43C4304.26 3509.1 4355.88 3560.71 4419.55 3560.71Z" fill="#E6E8EC"/>
<path d="M4419.55 3188.66C4483.22 3188.66 4534.83 3137.05 4534.83 3073.38C4534.83 3009.71 4483.22 2958.09 4419.55 2958.09C4355.88 2958.09 4304.26 3009.71 4304.26 3073.38C4304.26 3137.05 4355.88 3188.66 4419.55 3188.66Z" fill="#E6E8EC"/>
<path d="M4885.92 3188.66C4949.59 3188.66 5001.2 3137.05 5001.2 3073.38C5001.2 3009.71 4949.59 2958.09 4885.92 2958.09C4822.25 2958.09 4770.64 3009.71 4770.64 3073.38C4770.64 3137.05 4822.25 3188.66 4885.92 3188.66Z" fill="#E6E8EC"/>
<path d="M5341.82 2984.29C5405.48 2984.29 5457.1 2932.68 5457.1 2869.01C5457.1 2805.34 5405.48 2753.73 5341.82 2753.73C5278.15 2753.73 5226.53 2805.34 5226.53 2869.01C5226.53 2932.68 5278.15 2984.29 5341.82 2984.29Z" fill="#E6E8EC"/>
<path d="M5341.82 2554.6C5405.48 2554.6 5457.1 2502.99 5457.1 2439.32C5457.1 2375.65 5405.48 2324.03 5341.82 2324.03C5278.15 2324.03 5226.53 2375.65 5226.53 2439.32C5226.53 2502.99 5278.15 2554.6 5341.82 2554.6Z" fill="#E6E8EC"/>
<path d="M5341.82 2124.91C5405.48 2124.91 5457.1 2073.29 5457.1 2009.62C5457.1 1945.95 5405.48 1894.34 5341.82 1894.34C5278.15 1894.34 5226.53 1945.95 5226.53 2009.62C5226.53 2073.29 5278.15 2124.91 5341.82 2124.91Z" fill="#E6E8EC"/>
<path d="M5341.82 1700.45C5405.48 1700.45 5457.1 1648.84 5457.1 1585.17C5457.1 1521.5 5405.48 1469.88 5341.82 1469.88C5278.15 1469.88 5226.53 1521.5 5226.53 1585.17C5226.53 1648.84 5278.15 1700.45 5341.82 1700.45Z" fill="#E6E8EC"/>
<path d="M5193.1 1267.87L5319.79 1211.2L5444.41 1158.82C5478.95 1144.31 5517.12 1169.67 5517.12 1207.13V3226.91C5517.12 3255.85 5493.65 3279.31 5464.71 3279.31H4712.75C4672.23 3279.31 4639.39 3312.16 4639.39 3352.67V4078.44V4233.02V4387.61C4639.39 4416.55 4615.93 4440.01 4586.98 4440.01H4248.99C4220.05 4440.01 4196.59 4416.55 4196.59 4387.61V2911.19C4196.59 2882.25 4220.05 2858.79 4248.99 2858.79H5088.73C5129.25 2858.79 5162.09 2825.94 5162.09 2785.42V1315.7C5162.09 1295.04 5174.24 1276.3 5193.1 1267.87Z" fill="#E6DFF8" stroke="#6531F5" stroke-width="20.9607"/>
<path d="M4460.74 2961.55C4460.01 2959.01 4458.98 2956.77 4457.66 2954.83C4456.34 2952.85 4454.73 2951.18 4452.82 2949.83C4450.94 2948.44 4448.79 2947.38 4446.36 2946.65C4443.96 2945.92 4441.3 2945.55 4438.38 2945.55C4432.93 2945.55 4428.14 2946.91 4424 2949.62C4419.9 2952.33 4416.71 2956.27 4414.42 2961.45C4412.12 2966.59 4410.98 2972.87 4410.98 2980.31C4410.98 2987.74 4412.11 2994.06 4414.36 2999.27C4416.62 3004.48 4419.82 3008.46 4423.95 3011.2C4428.08 3013.91 4432.97 3015.27 4438.59 3015.27C4443.7 3015.27 4448.06 3014.37 4451.67 3012.56C4455.32 3010.72 4458.1 3008.13 4460.01 3004.8C4461.95 3001.46 4462.92 2997.52 4462.92 2992.97L4467.51 2993.65H4440V2976.66H4484.65V2990.1C4484.65 2999.48 4482.67 3007.54 4478.71 3014.28C4474.75 3020.98 4469.3 3026.16 4462.35 3029.81C4455.4 3033.42 4447.45 3035.22 4438.49 3035.22C4428.48 3035.22 4419.7 3033.02 4412.12 3028.61C4404.55 3024.16 4398.65 3017.86 4394.41 3009.69C4390.21 3001.5 4388.1 2991.77 4388.1 2980.52C4388.1 2971.87 4389.35 2964.15 4391.86 2957.38C4394.39 2950.57 4397.93 2944.81 4402.48 2940.08C4407.03 2935.36 4412.33 2931.76 4418.38 2929.3C4424.42 2926.83 4430.97 2925.6 4438.02 2925.6C4444.06 2925.6 4449.69 2926.48 4454.9 2928.25C4460.11 2929.99 4464.73 2932.46 4468.76 2935.65C4472.82 2938.85 4476.14 2942.65 4478.71 2947.06C4481.28 2951.44 4482.93 2956.27 4483.66 2961.55H4460.74Z" fill="#6531F5" fill-opacity="0.45"/>
<path d="M4501.6 3033.77V2927.06H4573.5V2945.66H4524.16V2971.08H4569.8V2989.69H4524.16V3015.16H4573.71V3033.77H4501.6Z" fill="#6531F5" fill-opacity="0.45"/>
<path d="M4680.69 2927.06V3033.77H4661.21L4614.78 2966.6H4614V3033.77H4591.44V2927.06H4611.24L4657.3 2994.17H4658.24V2927.06H4680.69Z" fill="#6531F5" fill-opacity="0.45"/>
<path d="M4699.33 3033.77V2927.06H4771.24V2945.66H4721.89V2971.08H4767.54V2989.69H4721.89V3015.16H4771.45V3033.77H4699.33Z" fill="#6531F5" fill-opacity="0.45"/>
<path d="M4789.17 3033.77V2927.06H4831.27C4839.33 2927.06 4846.21 2928.5 4851.91 2931.38C4857.64 2934.23 4862 2938.28 4864.99 2943.52C4868.01 2948.73 4869.52 2954.86 4869.52 2961.91C4869.52 2969 4867.99 2975.1 4864.93 2980.2C4861.88 2985.27 4857.45 2989.16 4851.65 2991.87C4845.88 2994.58 4838.9 2995.94 4830.7 2995.94H4802.51V2977.81H4827.05C4831.36 2977.81 4834.94 2977.22 4837.79 2976.03C4840.64 2974.85 4842.75 2973.08 4844.14 2970.72C4845.57 2968.36 4846.28 2965.42 4846.28 2961.91C4846.28 2958.37 4845.57 2955.38 4844.14 2952.95C4842.75 2950.52 4840.62 2948.68 4837.74 2947.43C4834.89 2946.14 4831.29 2945.5 4826.95 2945.5H4811.74V3033.77H4789.17ZM4846.8 2985.2L4873.32 3033.77H4848.42L4822.47 2985.2H4846.8Z" fill="#6531F5" fill-opacity="0.45"/>
<path d="M4903.86 3033.77H4879.68L4916.52 2927.06H4945.59L4982.38 3033.77H4958.2L4931.47 2951.44H4930.64L4903.86 3033.77ZM4902.34 2991.82H4959.45V3009.43H4902.34V2991.82Z" fill="#6531F5" fill-opacity="0.45"/>
<path d="M4995.22 3033.77V2927.06H5017.78V3015.16H5063.53V3033.77H4995.22Z" fill="#6531F5" fill-opacity="0.45"/>
<path d="M4497.75 3123.82V3105.22H4585.39V3123.82H4552.72V3211.93H4530.42V3123.82H4497.75Z" fill="#6531F5" fill-opacity="0.45"/>
<path d="M4605.18 3211.93H4581L4617.84 3105.22H4646.91L4683.7 3211.93H4659.52L4632.79 3129.61H4631.96L4605.18 3211.93ZM4603.66 3169.99H4660.77V3187.6H4603.66V3169.99Z" fill="#6531F5" fill-opacity="0.45"/>
<path d="M4696.54 3211.93V3105.22H4739.26C4747.12 3105.22 4753.66 3106.39 4758.91 3108.71C4764.15 3111.04 4768.1 3114.27 4770.74 3118.4C4773.38 3122.5 4774.7 3127.23 4774.7 3132.58C4774.7 3136.75 4773.86 3140.41 4772.19 3143.57C4770.53 3146.7 4768.23 3149.27 4765.32 3151.28C4762.43 3153.26 4759.13 3154.67 4755.42 3155.5V3156.54C4759.48 3156.72 4763.28 3157.86 4766.83 3159.98C4770.41 3162.1 4773.31 3165.07 4775.53 3168.89C4777.75 3172.68 4778.86 3177.2 4778.86 3182.44C4778.86 3188.1 4777.46 3193.16 4774.64 3197.6C4771.86 3202.01 4767.75 3205.51 4762.29 3208.08C4756.84 3210.65 4750.12 3211.93 4742.13 3211.93H4696.54ZM4719.1 3193.49H4737.49C4743.78 3193.49 4748.37 3192.29 4751.25 3189.89C4754.13 3187.46 4755.57 3184.23 4755.57 3180.2C4755.57 3177.25 4754.86 3174.64 4753.44 3172.38C4752.01 3170.13 4749.98 3168.36 4747.34 3167.07C4744.74 3165.78 4741.63 3165.14 4738.01 3165.14H4719.1V3193.49ZM4719.1 3149.88H4735.83C4738.92 3149.88 4741.66 3149.34 4744.06 3148.26C4746.49 3147.15 4748.4 3145.59 4749.79 3143.57C4751.21 3141.56 4751.93 3139.14 4751.93 3136.33C4751.93 3132.47 4750.55 3129.36 4747.81 3127C4745.1 3124.64 4741.24 3123.46 4736.24 3123.46H4719.1V3149.88Z" fill="#6531F5" fill-opacity="0.45"/>
<path d="M4793.54 3211.93V3105.22H4816.11V3193.33H4861.85V3211.93H4793.54Z" fill="#6531F5" fill-opacity="0.45"/>
<path d="M4876.79 3211.93V3105.22H4948.7V3123.82H4899.35V3149.25H4945V3167.85H4899.35V3193.33H4948.91V3211.93H4876.79Z" fill="#6531F5" fill-opacity="0.45"/>
<rect x="568.018" y="1877.56" width="649.782" height="1792.14" rx="62.8821" fill="white"/>
<path d="M892.909 2254.85C956.578 2254.85 1008.19 2203.24 1008.19 2139.57C1008.19 2075.9 956.578 2024.29 892.909 2024.29C829.239 2024.29 777.625 2075.9 777.625 2139.57C777.625 2203.24 829.239 2254.85 892.909 2254.85Z" fill="#E6E8EC"/>
<path d="M892.909 2679.31C956.578 2679.31 1008.19 2627.7 1008.19 2564.03C1008.19 2500.36 956.578 2448.74 892.909 2448.74C829.239 2448.74 777.625 2500.36 777.625 2564.03C777.625 2627.7 829.239 2679.31 892.909 2679.31Z" fill="#E6E8EC"/>
<path d="M892.909 3103.76C956.578 3103.76 1008.19 3052.15 1008.19 2988.48C1008.19 2924.81 956.578 2873.2 892.909 2873.2C829.239 2873.2 777.625 2924.81 777.625 2988.48C777.625 3052.15 829.239 3103.76 892.909 3103.76Z" fill="#E6E8EC"/>
<path d="M892.909 3528.22C956.578 3528.22 1008.19 3476.6 1008.19 3412.93C1008.19 3349.26 956.578 3297.65 892.909 3297.65C829.239 3297.65 777.625 3349.26 777.625 3412.93C777.625 3476.6 829.239 3528.22 892.909 3528.22Z" fill="#E6E8EC"/>
<rect x="578.498" y="1888.04" width="628.821" height="1771.18" rx="52.4017" fill="#E6DFF8" stroke="#6531F5" stroke-width="20.9607"/>
<path d="M797.873 2710.75L824.104 2794.36L825.111 2794.36L851.395 2710.75L876.831 2710.75L839.419 2820.79L809.849 2820.79L772.384 2710.75L797.873 2710.75Z" fill="#AC91F7"/>
<path d="M912.839 2710.75L912.839 2820.79L889.894 2820.79L889.894 2710.75L912.839 2710.75Z" fill="#AC91F7"/>
<path d="M931.718 2820.79L931.718 2710.75L974.535 2710.75C982.767 2710.75 989.779 2712.34 995.573 2715.53C1001.37 2718.68 1005.78 2723.07 1008.82 2728.7C1011.89 2734.28 1013.43 2740.73 1013.43 2748.04C1013.43 2755.35 1011.88 2761.8 1008.77 2767.38C1005.66 2772.97 1001.16 2777.32 995.255 2780.44C989.391 2783.56 982.29 2785.12 973.952 2785.12L946.662 2785.12L946.662 2766.47L970.243 2766.47C974.659 2766.47 978.298 2765.7 981.159 2764.16C984.056 2762.58 986.211 2760.42 987.624 2757.66C989.073 2754.86 989.797 2751.66 989.797 2748.04C989.797 2744.39 989.073 2741.2 987.624 2738.48C986.211 2735.72 984.056 2733.59 981.159 2732.08C978.263 2730.54 974.588 2729.77 970.137 2729.77L954.663 2729.77L954.663 2820.79L931.718 2820.79Z" fill="#AC91F7"/>
<rect x="557.537" y="4198.96" width="979.913" height="1053.28" rx="62.8821" fill="white"/>
<path d="M830.026 4624.47C893.696 4624.47 945.31 4572.86 945.31 4509.19C945.31 4445.52 893.696 4393.9 830.026 4393.9C766.357 4393.9 714.742 4445.52 714.742 4509.19C714.742 4572.86 766.357 4624.47 830.026 4624.47Z" fill="#E6E8EC"/>
<path d="M1270.2 4624.47C1333.87 4624.47 1385.49 4572.86 1385.49 4509.19C1385.49 4445.52 1333.87 4393.9 1270.2 4393.9C1206.53 4393.9 1154.92 4445.52 1154.92 4509.19C1154.92 4572.86 1206.53 4624.47 1270.2 4624.47Z" fill="#E6E8EC"/>
<path d="M830.026 5064.64C893.696 5064.64 945.31 5013.03 945.31 4949.36C945.31 4885.69 893.696 4834.08 830.026 4834.08C766.357 4834.08 714.742 4885.69 714.742 4949.36C714.742 5013.03 766.357 5064.64 830.026 5064.64Z" fill="#E6E8EC"/>
<path d="M1270.2 5064.64C1333.87 5064.64 1385.49 5013.03 1385.49 4949.36C1385.49 4885.69 1333.87 4834.08 1270.2 4834.08C1206.53 4834.08 1154.92 4885.69 1154.92 4949.36C1154.92 5013.03 1206.53 5064.64 1270.2 5064.64Z" fill="#E6E8EC"/>
<rect x="568.017" y="4209.44" width="958.952" height="1032.31" rx="52.4017" fill="#E6DFF8" stroke="#6531F5" stroke-width="20.9607"/>
<path d="M787.375 4622.69C786.646 4620.15 785.621 4617.91 784.301 4615.96C782.981 4613.98 781.366 4612.32 779.455 4610.96C777.58 4609.57 775.426 4608.51 772.994 4607.78C770.598 4607.05 767.94 4606.69 765.023 4606.69C759.569 4606.69 754.775 4608.04 750.642 4610.75C746.543 4613.46 743.347 4617.41 741.055 4622.58C738.762 4627.72 737.616 4634.01 737.616 4641.44C737.616 4648.88 738.745 4655.2 741.003 4660.41C743.26 4665.62 746.456 4669.6 750.59 4672.34C754.723 4675.05 759.604 4676.41 765.231 4676.41C770.337 4676.41 774.697 4675.5 778.309 4673.7C781.956 4671.85 784.735 4669.27 786.646 4665.93C788.591 4662.6 789.564 4658.66 789.564 4654.1L794.149 4654.78H766.638V4637.8H811.291V4651.24C811.291 4660.62 809.311 4668.68 805.351 4675.42C801.391 4682.12 795.938 4687.3 788.99 4690.94C782.043 4694.55 774.089 4696.36 765.127 4696.36C755.123 4696.36 746.335 4694.16 738.762 4689.74C731.19 4685.3 725.285 4678.99 721.047 4670.83C716.844 4662.63 714.742 4652.91 714.742 4641.65C714.742 4633 715.993 4625.29 718.494 4618.52C721.029 4611.71 724.572 4605.94 729.123 4601.22C733.673 4596.5 738.971 4592.9 745.015 4590.43C751.059 4587.97 757.606 4586.73 764.658 4586.73C770.702 4586.73 776.329 4587.62 781.54 4589.39C786.75 4591.13 791.37 4593.59 795.399 4596.79C799.463 4599.99 802.781 4603.79 805.351 4608.2C807.922 4612.58 809.571 4617.41 810.301 4622.69H787.375Z" fill="#6531F5" fill-opacity="0.45"/>
<path d="M828.238 4694.9V4588.19H900.141V4606.79H850.799V4632.22H896.442V4650.82H850.799V4676.3H900.35V4694.9H828.238Z" fill="#6531F5" fill-opacity="0.45"/>
<path d="M1007.33 4588.19V4694.9H987.845L941.421 4627.74H940.639V4694.9H918.078V4588.19H937.878L983.938 4655.3H984.875V4588.19H1007.33Z" fill="#6531F5" fill-opacity="0.45"/>
<path d="M1025.97 4694.9V4588.19H1097.88V4606.79H1048.53V4632.22H1094.18V4650.82H1048.53V4676.3H1098.08V4694.9H1025.97Z" fill="#6531F5" fill-opacity="0.45"/>
<path d="M1115.81 4694.9V4588.19H1157.91C1165.97 4588.19 1172.85 4589.63 1178.55 4592.52C1184.28 4595.37 1188.64 4599.41 1191.62 4604.66C1194.65 4609.87 1196.16 4616 1196.16 4623.05C1196.16 4630.14 1194.63 4636.23 1191.57 4641.34C1188.52 4646.41 1184.09 4650.3 1178.29 4653.01C1172.52 4655.72 1165.54 4657.07 1157.34 4657.07H1129.15V4638.94H1153.69C1158 4638.94 1161.58 4638.35 1164.43 4637.17C1167.27 4635.99 1169.39 4634.22 1170.78 4631.86C1172.21 4629.49 1172.92 4626.56 1172.92 4623.05C1172.92 4619.51 1172.21 4616.52 1170.78 4614.09C1169.39 4611.66 1167.26 4609.82 1164.37 4608.57C1161.53 4607.28 1157.93 4606.64 1153.59 4606.64H1138.37V4694.9H1115.81ZM1173.44 4646.34L1199.96 4694.9H1175.06L1149.11 4646.34H1173.44Z" fill="#6531F5" fill-opacity="0.45"/>
<path d="M1230.49 4694.9H1206.32L1243.15 4588.19H1272.23L1309.01 4694.9H1284.84L1258.11 4612.58H1257.28L1230.49 4694.9ZM1228.98 4652.96H1286.09V4670.57H1228.98V4652.96Z" fill="#6531F5" fill-opacity="0.45"/>
<path d="M1321.86 4694.9V4588.19H1344.42V4676.3H1390.17V4694.9H1321.86Z" fill="#6531F5" fill-opacity="0.45"/>
<path d="M824.389 4784.96V4766.36H912.028V4784.96H879.358V4873.07H857.058V4784.96H824.389Z" fill="#6531F5" fill-opacity="0.45"/>
<path d="M931.814 4873.07H907.638L944.475 4766.36H973.549L1010.33 4873.07H986.158L959.429 4790.74H958.595L931.814 4873.07ZM930.303 4831.12H987.409V4848.74H930.303V4831.12Z" fill="#6531F5" fill-opacity="0.45"/>
<path d="M1023.18 4873.07V4766.36H1065.9C1073.75 4766.36 1080.3 4767.52 1085.55 4769.85C1090.79 4772.18 1094.73 4775.41 1097.37 4779.54C1100.01 4783.64 1101.33 4788.36 1101.33 4793.71C1101.33 4797.88 1100.5 4801.55 1098.83 4804.71C1097.17 4807.83 1094.87 4810.4 1091.96 4812.42C1089.07 4814.4 1085.77 4815.81 1082.06 4816.64V4817.68C1086.12 4817.86 1089.92 4819 1093.47 4821.12C1097.04 4823.24 1099.94 4826.21 1102.17 4830.03C1104.39 4833.82 1105.5 4838.33 1105.5 4843.58C1105.5 4849.24 1104.1 4854.29 1101.28 4858.74C1098.5 4863.15 1094.39 4866.64 1088.93 4869.21C1083.48 4871.78 1076.76 4873.07 1068.77 4873.07H1023.18ZM1045.74 4854.62H1064.13C1070.42 4854.62 1075 4853.43 1077.89 4851.03C1080.77 4848.6 1082.21 4845.37 1082.21 4841.34C1082.21 4838.38 1081.5 4835.78 1080.08 4833.52C1078.65 4831.26 1076.62 4829.49 1073.98 4828.21C1071.37 4826.92 1068.27 4826.28 1064.65 4826.28H1045.74V4854.62ZM1045.74 4811.01H1062.46C1065.56 4811.01 1068.3 4810.47 1070.7 4809.4C1073.13 4808.29 1075.04 4806.72 1076.43 4804.71C1077.85 4802.69 1078.56 4800.28 1078.56 4797.47C1078.56 4793.61 1077.19 4790.5 1074.45 4788.14C1071.74 4785.78 1067.88 4784.6 1062.88 4784.6H1045.74V4811.01Z" fill="#6531F5" fill-opacity="0.45"/>
<path d="M1120.18 4873.07V4766.36H1142.74V4854.47H1188.49V4873.07H1120.18Z" fill="#6531F5" fill-opacity="0.45"/>
<path d="M1203.43 4873.07V4766.36H1275.34V4784.96H1225.99V4810.39H1271.64V4828.99H1225.99V4854.47H1275.54V4873.07H1203.43Z" fill="#6531F5" fill-opacity="0.45"/>
<path d="M1545.81 4130.8H630.9C599.065 4130.8 573.258 4105 573.258 4073.16V3805.93C573.258 3774.1 599.065 3748.29 630.9 3748.29H1233.52C1271.14 3748.29 1301.64 3717.79 1301.64 3680.17V1867.08C1301.64 1829.46 1271.14 1798.96 1233.52 1798.96H630.9C599.065 1798.96 573.258 1773.15 573.258 1741.32V1211.3C573.258 1165.83 624.213 1136.56 664.375 1158.56C938.187 1308.59 1756.93 1703.26 2836.63 1730.84C3920.77 1758.53 4722.97 1464.46 4986.23 1352.94C5025.98 1336.1 5071.7 1365.31 5071.7 1408.13V2723.36C5071.7 2755.19 5045.89 2781 5014.06 2781H4172.5C4134.88 2781 4104.38 2811.5 4104.38 2849.12V4452.33C4104.38 4489.96 4134.88 4520.46 4172.5 4520.46H5451.86C5483.7 4520.46 5509.5 4546.26 5509.5 4578.1V6415.55C5509.5 6447.39 5483.7 6473.2 5451.86 6473.2H3676.48H2469.95H1854.23H630.9C599.065 6473.2 573.258 6447.39 573.258 6415.55V5376.08C573.258 5344.24 599.065 5318.43 630.9 5318.43H1545.81C1583.43 5318.43 1613.93 5287.93 1613.93 5250.31V4198.93C1613.93 4161.3 1583.43 4130.8 1545.81 4130.8Z" fill="#E6E8EC" stroke="#B1B5C4" stroke-width="10.4803"/>
<path d="M2627.19 3574.85C2626.04 3570.87 2624.43 3567.35 2622.35 3564.29C2620.28 3561.18 2617.74 3558.56 2614.74 3556.43C2611.79 3554.25 2608.41 3552.58 2604.59 3551.44C2600.82 3550.29 2596.64 3549.72 2592.06 3549.72C2583.49 3549.72 2575.96 3551.85 2569.46 3556.1C2563.02 3560.36 2558 3566.56 2554.4 3574.69C2550.79 3582.77 2548.99 3592.65 2548.99 3604.33C2548.99 3616.01 2550.77 3625.95 2554.31 3634.13C2557.86 3642.32 2562.88 3648.57 2569.38 3652.88C2575.88 3657.14 2583.54 3659.27 2592.39 3659.27C2600.41 3659.27 2607.26 3657.85 2612.94 3655.01C2618.67 3652.12 2623.04 3648.05 2626.04 3642.81C2629.1 3637.57 2630.62 3631.38 2630.62 3624.23L2637.83 3625.29H2594.6V3598.6H2664.77V3619.72C2664.77 3634.46 2661.66 3647.12 2655.43 3657.71C2649.21 3668.25 2640.64 3676.38 2629.72 3682.11C2618.81 3687.79 2606.31 3690.63 2592.22 3690.63C2576.5 3690.63 2562.69 3687.16 2550.79 3680.23C2538.89 3673.24 2529.61 3663.34 2522.95 3650.51C2516.35 3637.63 2513.05 3622.34 2513.05 3604.66C2513.05 3591.07 2515.01 3578.95 2518.94 3568.3C2522.93 3557.6 2528.5 3548.54 2535.65 3541.12C2542.8 3533.7 2551.12 3528.05 2560.62 3524.17C2570.12 3520.3 2580.41 3518.36 2591.49 3518.36C2600.98 3518.36 2609.83 3519.75 2618.01 3522.53C2626.2 3525.26 2633.46 3529.14 2639.79 3534.16C2646.18 3539.18 2651.39 3545.16 2655.43 3552.09C2659.47 3558.97 2662.07 3566.56 2663.21 3574.85H2627.19ZM2691.4 3688.34V3520.65H2804.39V3549.88H2726.85V3589.84H2798.58V3619.07H2726.85V3659.11H2804.72V3688.34H2691.4ZM2972.83 3520.65V3688.34H2942.21L2869.26 3582.8H2868.03V3688.34H2832.58V3520.65H2863.69L2936.07 3626.11H2937.54V3520.65H2972.83ZM3002.12 3688.34V3520.65H3115.12V3549.88H3037.58V3589.84H3109.3V3619.07H3037.58V3659.11H3115.44V3688.34H3002.12ZM3143.3 3688.34V3520.65H3209.46C3222.12 3520.65 3232.93 3522.92 3241.88 3527.45C3250.89 3531.92 3257.74 3538.28 3262.43 3546.52C3267.18 3554.71 3269.56 3564.35 3269.56 3575.43C3269.56 3586.56 3267.16 3596.14 3262.35 3604.17C3257.55 3612.14 3250.59 3618.25 3241.47 3622.51C3232.41 3626.76 3221.44 3628.89 3208.56 3628.89H3164.26V3600.4H3202.83C3209.6 3600.4 3215.22 3599.47 3219.69 3597.62C3224.17 3595.76 3227.5 3592.98 3229.68 3589.26C3231.92 3585.55 3233.04 3580.94 3233.04 3575.43C3233.04 3569.86 3231.92 3565.16 3229.68 3561.34C3227.5 3557.52 3224.14 3554.63 3219.61 3552.66C3215.14 3550.64 3209.49 3549.64 3202.66 3549.64H3178.75V3688.34H3143.3ZM3233.86 3612.03L3275.53 3688.34H3236.4L3195.62 3612.03H3233.86ZM3323.51 3688.34H3285.52L3343.41 3520.65H3389.1L3446.9 3688.34H3408.91L3366.91 3558.97H3365.6L3323.51 3688.34ZM3321.14 3622.42H3410.88V3650.1H3321.14V3622.42ZM3467.09 3688.34V3520.65H3502.54V3659.11H3574.43V3688.34H3467.09ZM2419.59 3967.34H2381.6L2439.49 3799.65H2485.18L2542.98 3967.34H2504.99L2462.99 3837.97H2461.68L2419.59 3967.34ZM2417.22 3901.42H2506.96V3929.1H2417.22V3901.42ZM2622.61 3967.34H2563.17V3799.65H2623.1C2639.97 3799.65 2654.49 3803.01 2666.66 3809.72C2678.83 3816.38 2688.19 3825.96 2694.74 3838.46C2701.35 3850.96 2704.65 3865.92 2704.65 3883.33C2704.65 3900.8 2701.35 3915.81 2694.74 3928.36C2688.19 3940.92 2678.78 3950.55 2666.5 3957.26C2654.27 3963.98 2639.64 3967.34 2622.61 3967.34ZM2598.62 3936.96H2621.14C2631.62 3936.96 2640.43 3935.1 2647.58 3931.39C2654.79 3927.63 2660.19 3921.81 2663.79 3913.95C2667.45 3906.04 2669.28 3895.83 2669.28 3883.33C2669.28 3870.94 2667.45 3860.81 2663.79 3852.95C2660.19 3845.09 2654.82 3839.31 2647.66 3835.59C2640.51 3831.88 2631.7 3830.03 2621.22 3830.03H2598.62V3936.96ZM2730.91 3799.65H2774.64L2820.82 3912.31H2822.78L2868.96 3799.65H2912.68V3967.34H2878.29V3858.19H2876.9L2833.51 3966.52H2810.09L2766.69 3857.78H2765.3V3967.34H2730.91V3799.65ZM2977.35 3799.65V3967.34H2941.89V3799.65H2977.35ZM3097.48 3847.88C3096.83 3841.27 3094.01 3836.14 3089.05 3832.48C3084.08 3828.83 3077.34 3827 3068.82 3827C3063.04 3827 3058.15 3827.82 3054.17 3829.45C3050.18 3831.04 3047.13 3833.25 3045 3836.09C3042.92 3838.92 3041.89 3842.14 3041.89 3845.75C3041.78 3848.75 3042.4 3851.37 3043.77 3853.61C3045.19 3855.85 3047.13 3857.78 3049.58 3859.42C3052.04 3861 3054.88 3862.4 3058.1 3863.6C3061.32 3864.74 3064.76 3865.73 3068.41 3866.54L3083.48 3870.15C3090.79 3871.78 3097.51 3873.97 3103.62 3876.7C3109.74 3879.43 3115.03 3882.78 3119.51 3886.77C3123.98 3890.75 3127.45 3895.45 3129.9 3900.85C3132.42 3906.26 3133.7 3912.45 3133.75 3919.44C3133.7 3929.7 3131.08 3938.6 3125.89 3946.13C3120.76 3953.61 3113.34 3959.42 3103.62 3963.57C3093.96 3967.66 3082.31 3969.71 3068.66 3969.71C3055.12 3969.71 3043.33 3967.64 3033.29 3963.49C3023.3 3959.34 3015.49 3953.2 3009.87 3945.07C3004.3 3936.88 3001.38 3926.75 3001.11 3914.69H3035.42C3035.8 3920.31 3037.41 3925.01 3040.25 3928.77C3043.14 3932.48 3046.99 3935.29 3051.79 3937.2C3056.65 3939.06 3062.14 3939.99 3068.25 3939.99C3074.25 3939.99 3079.47 3939.12 3083.89 3937.37C3088.36 3935.62 3091.83 3933.19 3094.29 3930.08C3096.74 3926.97 3097.97 3923.39 3097.97 3919.36C3097.97 3915.59 3096.85 3912.42 3094.61 3909.86C3092.43 3907.29 3089.21 3905.11 3084.95 3903.31C3080.75 3901.51 3075.59 3899.87 3069.48 3898.39L3051.22 3893.81C3037.08 3890.37 3025.92 3884.99 3017.73 3877.68C3009.54 3870.37 3005.48 3860.51 3005.53 3848.12C3005.48 3837.97 3008.18 3829.1 3013.64 3821.51C3019.15 3813.92 3026.71 3808 3036.32 3803.74C3045.92 3799.49 3056.84 3797.36 3069.07 3797.36C3081.51 3797.36 3092.38 3799.49 3101.66 3803.74C3110.99 3808 3118.25 3813.92 3123.44 3821.51C3128.62 3829.1 3131.3 3837.89 3131.46 3847.88H3097.48ZM3248.57 3847.88C3247.91 3841.27 3245.1 3836.14 3240.13 3832.48C3235.16 3828.83 3228.42 3827 3219.91 3827C3214.12 3827 3209.24 3827.82 3205.25 3829.45C3201.27 3831.04 3198.21 3833.25 3196.08 3836.09C3194.01 3838.92 3192.97 3842.14 3192.97 3845.75C3192.86 3848.75 3193.49 3851.37 3194.85 3853.61C3196.27 3855.85 3198.21 3857.78 3200.67 3859.42C3203.12 3861 3205.96 3862.4 3209.18 3863.6C3212.4 3864.74 3215.84 3865.73 3219.5 3866.54L3234.56 3870.15C3241.88 3871.78 3248.59 3873.97 3254.71 3876.7C3260.82 3879.43 3266.11 3882.78 3270.59 3886.77C3275.07 3890.75 3278.53 3895.45 3280.99 3900.85C3283.5 3906.26 3284.78 3912.45 3284.84 3919.44C3284.78 3929.7 3282.16 3938.6 3276.98 3946.13C3271.85 3953.61 3264.42 3959.42 3254.71 3963.57C3245.04 3967.66 3233.39 3969.71 3219.74 3969.71C3206.21 3969.71 3194.42 3967.64 3184.37 3963.49C3174.38 3959.34 3166.58 3953.2 3160.96 3945.07C3155.39 3936.88 3152.47 3926.75 3152.2 3914.69H3186.5C3186.88 3920.31 3188.49 3925.01 3191.33 3928.77C3194.23 3932.48 3198.07 3935.29 3202.88 3937.2C3207.74 3939.06 3213.22 3939.99 3219.34 3939.99C3225.34 3939.99 3230.55 3939.12 3234.97 3937.37C3239.45 3935.62 3242.92 3933.19 3245.37 3930.08C3247.83 3926.97 3249.06 3923.39 3249.06 3919.36C3249.06 3915.59 3247.94 3912.42 3245.7 3909.86C3243.52 3907.29 3240.3 3905.11 3236.04 3903.31C3231.84 3901.51 3226.68 3899.87 3220.56 3898.39L3202.3 3893.81C3188.17 3890.37 3177 3884.99 3168.82 3877.68C3160.63 3870.37 3156.56 3860.51 3156.62 3848.12C3156.56 3837.97 3159.26 3829.1 3164.72 3821.51C3170.24 3813.92 3177.8 3808 3187.4 3803.74C3197.01 3799.49 3207.93 3797.36 3220.15 3797.36C3232.6 3797.36 3243.46 3799.49 3252.74 3803.74C3262.08 3808 3269.34 3813.92 3274.52 3821.51C3279.71 3829.1 3282.38 3837.89 3282.54 3847.88H3248.57ZM3344.14 3799.65V3967.34H3308.68V3799.65H3344.14ZM3527.4 3883.49C3527.4 3901.78 3523.93 3917.34 3517 3930.16C3510.12 3942.99 3500.74 3952.79 3488.84 3959.56C3476.99 3966.27 3463.67 3969.63 3448.88 3969.63C3433.98 3969.63 3420.6 3966.24 3408.76 3959.48C3396.91 3952.71 3387.55 3942.91 3380.68 3930.08C3373.8 3917.25 3370.36 3901.72 3370.36 3883.49C3370.36 3865.21 3373.8 3849.65 3380.68 3836.82C3387.55 3824 3396.91 3814.22 3408.76 3807.51C3420.6 3800.74 3433.98 3797.36 3448.88 3797.36C3463.67 3797.36 3476.99 3800.74 3488.84 3807.51C3500.74 3814.22 3510.12 3824 3517 3836.82C3523.93 3849.65 3527.4 3865.21 3527.4 3883.49ZM3491.46 3883.49C3491.46 3871.65 3489.68 3861.66 3486.13 3853.53C3482.64 3845.39 3477.7 3839.22 3471.31 3835.02C3464.93 3830.82 3457.45 3828.72 3448.88 3828.72C3440.31 3828.72 3432.83 3830.82 3426.44 3835.02C3420.06 3839.22 3415.09 3845.39 3411.54 3853.53C3408.05 3861.66 3406.3 3871.65 3406.3 3883.49C3406.3 3895.34 3408.05 3905.33 3411.54 3913.46C3415.09 3921.59 3420.06 3927.76 3426.44 3931.96C3432.83 3936.17 3440.31 3938.27 3448.88 3938.27C3457.45 3938.27 3464.93 3936.17 3471.31 3931.96C3477.7 3927.76 3482.64 3921.59 3486.13 3913.46C3489.68 3905.33 3491.46 3895.34 3491.46 3883.49ZM3693.92 3799.65V3967.34H3663.3L3590.34 3861.8H3589.12V3967.34H3553.66V3799.65H3584.78L3657.16 3905.11H3658.63V3799.65H3693.92Z" fill="#B1B5C4"/>
<path d="M570.76 861.744C568.294 860.229 565.067 861 563.552 863.467C562.038 865.933 562.809 869.16 565.275 870.674L570.76 861.744ZM568.018 866.209C565.275 870.674 565.28 870.677 565.289 870.683C565.298 870.688 565.31 870.696 565.327 870.706C565.359 870.726 565.407 870.755 565.469 870.793C565.595 870.87 565.781 870.983 566.028 871.133C566.521 871.432 567.256 871.877 568.231 872.462C570.181 873.631 573.091 875.362 576.944 877.617C584.65 882.127 596.132 888.733 611.264 897.134C641.527 913.938 686.391 937.928 744.852 966.707C861.772 1024.27 1033.09 1100.99 1250.77 1177.7C1686.14 1331.13 2307.04 1484.55 3049.24 1484.55V1474.07C2308.47 1474.07 1688.76 1320.94 1254.26 1167.82C1037.01 1091.26 866.075 1014.7 749.48 957.305C691.184 928.606 646.473 904.697 616.351 887.972C601.291 879.609 589.878 873.043 582.237 868.572C578.417 866.336 575.54 864.624 573.622 863.474C572.663 862.899 571.944 862.464 571.466 862.174C571.227 862.029 571.049 861.92 570.931 861.848C570.872 861.812 570.828 861.786 570.8 861.768C570.786 861.759 570.776 861.753 570.769 861.749C570.762 861.745 570.76 861.744 568.018 866.209ZM3049.24 1484.55C3791.44 1484.55 4412.34 1331.13 4847.71 1177.7C5065.39 1100.99 5236.71 1024.27 5353.63 966.707C5412.09 937.928 5456.95 913.938 5487.22 897.134C5502.35 888.733 5513.83 882.127 5521.54 877.617C5525.39 875.362 5528.3 873.631 5530.25 872.462C5531.22 871.877 5531.96 871.432 5532.45 871.133C5532.7 870.983 5532.89 870.87 5533.01 870.793C5533.07 870.755 5533.12 870.726 5533.15 870.706C5533.17 870.696 5533.18 870.688 5533.19 870.683C5533.2 870.677 5533.21 870.674 5530.46 866.209C5527.72 861.744 5527.72 861.745 5527.71 861.749C5527.7 861.753 5527.7 861.759 5527.68 861.768C5527.65 861.786 5527.61 861.812 5527.55 861.848C5527.43 861.92 5527.25 862.029 5527.01 862.174C5526.54 862.464 5525.82 862.899 5524.86 863.474C5522.94 864.624 5520.06 866.336 5516.24 868.572C5508.6 873.043 5497.19 879.609 5482.13 887.972C5452.01 904.697 5407.3 928.606 5349 957.305C5232.41 1014.7 5061.47 1091.26 4844.22 1167.82C4409.72 1320.94 3790.01 1474.07 3049.24 1474.07V1484.55Z" fill="#B1B5C4"/>
<path d="M2658.18 1056.94C2643.11 1056.94 2629.62 1054.5 2617.68 1049.61C2605.75 1044.72 2596.16 1037.48 2588.92 1027.89C2581.88 1018.31 2578.16 1006.76 2577.77 993.264H2631.18C2631.96 1000.89 2634.6 1006.76 2639.1 1010.87C2643.6 1014.78 2649.47 1016.74 2656.71 1016.74C2664.14 1016.74 2670.01 1015.08 2674.32 1011.75C2678.62 1008.23 2680.77 1003.44 2680.77 997.373C2680.77 992.286 2679.01 988.08 2675.49 984.754C2672.17 981.428 2667.96 978.69 2662.87 976.538C2657.98 974.386 2650.94 971.94 2641.74 969.201C2628.44 965.093 2617.58 960.985 2609.17 956.876C2600.76 952.768 2593.52 946.704 2587.46 938.683C2581.39 930.662 2578.36 920.195 2578.36 907.283C2578.36 888.111 2585.3 873.145 2599.19 862.386C2613.08 851.43 2631.18 845.952 2653.48 845.952C2676.18 845.952 2694.47 851.43 2708.36 862.386C2722.25 873.145 2729.68 888.209 2730.66 907.577H2676.37C2675.98 900.925 2673.54 895.741 2669.04 892.024C2664.54 888.111 2658.76 886.155 2651.72 886.155C2645.66 886.155 2640.77 887.818 2637.05 891.144C2633.33 894.274 2631.47 898.871 2631.47 904.936C2631.47 911.587 2634.6 916.772 2640.86 920.489C2647.12 924.206 2656.91 928.216 2670.21 932.52C2683.51 937.02 2694.27 941.324 2702.49 945.432C2710.9 949.54 2718.14 955.507 2724.2 963.332C2730.27 971.158 2733.3 981.233 2733.3 993.558C2733.3 1005.3 2730.27 1015.96 2724.2 1025.54C2718.34 1035.13 2709.73 1042.76 2698.38 1048.43C2687.03 1054.11 2673.63 1056.94 2658.18 1056.94ZM2912.37 848.887V889.09H2857.79V1054.89H2807.61V889.09H2753.03V848.887H2912.37ZM3065.8 1018.5H2988.91L2976.59 1054.89H2924.06L2998.6 848.887H3056.7L3131.23 1054.89H3078.12L3065.8 1018.5ZM3052.88 979.766L3027.35 904.349L3002.12 979.766H3052.88ZM3290.67 914.033C3286.95 907.186 3281.57 902.001 3274.53 898.48C3267.68 894.763 3259.56 892.904 3250.17 892.904C3233.93 892.904 3220.92 898.284 3211.14 909.044C3201.36 919.608 3196.47 933.792 3196.47 951.594C3196.47 970.571 3201.56 985.439 3211.73 996.199C3222.1 1006.76 3236.28 1012.04 3254.28 1012.04C3266.6 1012.04 3276.97 1008.91 3285.39 1002.65C3293.99 996.394 3300.25 987.395 3304.17 975.657H3240.49V938.683H3349.65V985.341C3345.93 997.862 3339.58 1009.5 3330.58 1020.26C3321.77 1031.02 3310.52 1039.73 3296.83 1046.38C3283.14 1053.03 3267.68 1056.36 3250.47 1056.36C3230.12 1056.36 3211.93 1051.95 3195.88 1043.15C3180.04 1034.15 3167.61 1021.73 3158.62 1005.88C3149.81 990.036 3145.41 971.94 3145.41 951.594C3145.41 931.248 3149.81 913.152 3158.62 897.306C3167.61 881.264 3180.04 868.841 3195.88 860.038C3211.73 851.039 3229.83 846.539 3250.17 846.539C3274.82 846.539 3295.56 852.506 3312.38 864.44C3329.4 876.373 3340.65 892.904 3346.13 914.033H3290.67ZM3427.63 889.09V930.759H3494.83V969.495H3427.63V1014.69H3503.63V1054.89H3377.45V848.887H3503.63V889.09H3427.63Z" fill="#777E91"/>
</svg>
