<svg xmlns="http://www.w3.org/2000/svg" width="7680" height="10240" fill="none" viewBox="0 0 7680 10240">
  <g class="Map Frame">
    <path fill="#fff" d="M0 0h7680v10240H0z"/>
    <path fill="#F4F5F6" stroke="#E5E6EE" stroke-width="93.934" d="M7266.79 9804.08c-523.91 91.36-2253.61 376.42-3428.26 376.42S934.178 9895.44 410.268 9804.08c-67.42-11.76-116.283-70.34-116.283-139.5l.001-6110.49c0-29.9 9.103-58.7 26.289-83.25 147.978-211.35 735.515-1064.69 1023.635-1697.41 233.13-511.96 456.65-1288.833 543.39-1604.429 17.41-63.344 74.75-107.348 139.91-107.348h3622.64c65.16 0 122.5 44.004 139.91 107.349 86.74 315.596 310.26 1092.468 543.39 1604.428 288.12 632.72 875.66 1486.06 1023.64 1697.41 17.18 24.55 26.29 53.35 26.29 83.25l-.01 6110.49c0 69.16-48.86 127.74-116.28 139.5Z" class="Map BG"/>
    <g class="Stage">
      <path stroke="#B1B5C4" stroke-linecap="round" stroke-width="35.225" d="M5921.3 2015.66s-807.24 624.39-2078.29 624.39-2078.29-624.39-2078.29-624.39" class="Scene BG"/>
      <path fill="#777E91" d="M3343.98 1718.99c-17.81 0-33.84-3.05-48.08-9.16-14.25-6.36-25.44-15.26-33.59-26.71-8.14-11.45-12.21-24.8-12.21-40.07h46.56c1.02 11.45 5.47 20.86 13.36 28.24 8.14 7.38 19.46 11.07 33.96 11.07 15.01 0 26.71-3.57 35.11-10.69 8.39-7.38 12.59-16.79 12.59-28.24 0-8.9-2.67-16.15-8.01-21.75-5.09-5.6-11.58-9.92-19.47-12.97-7.63-3.06-18.31-6.36-32.05-9.93-17.3-4.58-31.42-9.15-42.36-13.73-10.68-4.84-19.84-12.22-27.48-22.14-7.63-9.92-11.44-23.15-11.44-39.68 0-15.27 3.81-28.62 11.44-40.07 7.64-11.45 18.32-20.23 32.06-26.33 13.74-6.11 29.64-9.16 47.7-9.16 25.7 0 46.68 6.49 62.97 19.46 16.53 12.72 25.69 30.27 27.47 52.66h-48.08c-.76-9.67-5.34-17.93-13.74-24.8-8.39-6.87-19.46-10.31-33.2-10.31-12.46 0-22.64 3.18-30.53 9.54-7.88 6.36-11.83 15.52-11.83 27.48 0 8.14 2.42 14.88 7.25 20.22 5.09 5.09 11.45 9.16 19.08 12.22 7.64 3.05 18.07 6.36 31.3 9.92 17.55 4.83 31.8 9.67 42.74 14.5 11.19 4.83 20.6 12.34 28.23 22.51 7.89 9.93 11.83 23.28 11.83 40.07 0 13.49-3.68 26.21-11.06 38.16-7.13 11.96-17.68 21.63-31.68 29.01-13.73 7.12-30.02 10.68-48.84 10.68Zm193.67-177.45v116.39c0 7.89 1.78 13.61 5.34 17.18 3.82 3.3 10.18 4.96 19.08 4.96h26.72v36.25h-34.35c-19.59 0-34.6-4.58-45.03-13.74s-15.64-24.04-15.64-44.65v-116.39h-24.81v-35.49h24.81v-52.28h43.88v52.28h51.14v35.49h-51.14Zm76.73 68.69c0-21.11 4.33-39.81 12.98-56.09 8.9-16.29 20.86-28.88 35.87-37.78 15.26-9.16 32.05-13.74 50.37-13.74 16.53 0 30.91 3.31 43.12 9.92 12.47 6.36 22.39 14.37 29.77 24.04v-30.53h43.88v210.27h-43.88v-31.29c-7.38 9.92-17.43 18.19-30.15 24.8-12.72 6.62-27.22 9.92-43.5 9.92-18.07 0-34.6-4.58-49.61-13.73-15.01-9.42-26.97-22.39-35.87-38.93-8.65-16.79-12.98-35.74-12.98-56.86Zm172.11.77c0-14.51-3.06-27.1-9.16-37.78-5.85-10.69-13.61-18.83-23.28-24.43-9.67-5.59-20.1-8.39-31.29-8.39-11.2 0-21.63 2.8-31.29 8.39-9.67 5.35-17.56 13.36-23.66 24.04-5.86 10.44-8.78 22.9-8.78 37.4s2.92 27.22 8.78 38.16c6.1 10.94 13.99 19.34 23.66 25.19 9.92 5.6 20.35 8.39 31.29 8.39 11.19 0 21.62-2.79 31.29-8.39 9.67-5.6 17.43-13.74 23.28-24.42 6.1-10.94 9.16-23.66 9.16-38.16Zm185.74-108.38c16.28 0 30.65 3.31 43.12 9.92 12.72 6.36 22.64 14.37 29.76 24.04v-30.53H4089v213.7c0 19.34-4.07 36.51-12.21 51.52-8.14 15.27-19.97 27.22-35.49 35.87-15.27 8.65-33.58 12.98-54.95 12.98-28.5 0-52.16-6.75-70.98-20.23-18.83-13.23-29.51-31.29-32.06-54.19h43.12c3.31 10.94 10.31 19.72 20.99 26.33 10.94 6.87 23.92 10.31 38.93 10.31 17.55 0 31.67-5.35 42.35-16.03 10.94-10.69 16.41-26.2 16.41-46.56v-35.1c-7.37 9.92-17.42 18.31-30.14 25.18-12.47 6.62-26.72 9.92-42.74 9.92-18.32 0-35.11-4.58-50.38-13.73-15.01-9.42-26.96-22.39-35.87-38.93-8.65-16.79-12.97-35.74-12.97-56.86 0-21.11 4.32-39.81 12.97-56.09 8.91-16.29 20.86-28.88 35.87-37.78 15.27-9.16 32.06-13.74 50.38-13.74Zm72.88 108.38c0-14.51-3.05-27.1-9.15-37.78-5.86-10.69-13.62-18.83-23.28-24.43-9.67-5.59-20.1-8.39-31.29-8.39-11.2 0-21.63 2.8-31.3 8.39-9.66 5.35-17.55 13.36-23.66 24.04-5.85 10.44-8.77 22.9-8.77 37.4s2.92 27.22 8.77 38.16c6.11 10.94 14 19.34 23.66 25.19 9.93 5.6 20.36 8.39 31.3 8.39 11.19 0 21.62-2.79 31.29-8.39 9.66-5.6 17.42-13.74 23.28-24.42 6.1-10.94 9.15-23.66 9.15-38.16Zm293.74-4.97c0 7.89-.51 15.01-1.53 21.37h-160.65c1.27 16.8 7.5 30.28 18.7 40.46 11.19 10.17 24.93 15.26 41.21 15.26 23.4 0 39.94-9.8 49.61-29.38h46.94c-6.36 19.33-17.94 35.23-34.73 47.7-16.54 12.21-37.14 18.31-61.82 18.31-20.1 0-38.16-4.45-54.19-13.35-15.77-9.16-28.24-21.88-37.4-38.16-8.9-16.54-13.35-35.62-13.35-57.24 0-21.63 4.32-40.58 12.97-56.86 8.91-16.54 21.24-29.26 37.02-38.16 16.03-8.91 34.34-13.36 54.95-13.36 19.84 0 37.52 4.32 53.04 12.97 15.52 8.65 27.61 20.87 36.26 36.64 8.65 15.52 12.97 33.45 12.97 53.8Zm-45.41-13.73c-.26-16.03-5.98-28.88-17.17-38.55-11.2-9.66-25.06-14.5-41.6-14.5-15.01 0-27.86 4.84-38.54 14.5-10.69 9.42-17.05 22.27-19.08 38.55h116.39Z" class="Stage"/>
    </g>
  </g>
</svg>
